<svg width="20" height="20" viewBox="0 0 20 20" fill="none" xmlns="http://www.w3.org/2000/svg">
<path d="M10.0002 8.33333C11.611 8.33333 12.9168 7.0275 12.9168 5.41667C12.9168 3.80584 11.611 2.5 10.0002 2.5C8.38933 2.5 7.0835 3.80584 7.0835 5.41667C7.0835 7.0275 8.38933 8.33333 10.0002 8.33333Z" stroke="currentColor" stroke-width="1.66667" stroke-linecap="round" stroke-linejoin="round"/>
<path d="M2.5 17.0001V17.5001H17.5V17.0001C17.5 15.1332 17.5 14.1998 17.1367 13.4868C16.8171 12.8596 16.3072 12.3496 15.68 12.03C14.9669 11.6667 14.0335 11.6667 12.1667 11.6667H7.83333C5.9665 11.6667 5.03308 11.6667 4.32004 12.03C3.69283 12.3496 3.18289 12.8596 2.86331 13.4868C2.5 14.1998 2.5 15.1332 2.5 17.0001Z" stroke="currentColor" stroke-width="1.66667" stroke-linecap="round" stroke-linejoin="round"/>
</svg>
