<svg xmlns="http://www.w3.org/2000/svg" xmlns:xlink="http://www.w3.org/1999/xlink" width="24" height="24"
  viewBox="0 0 24 24" fill="none">
  <g opacity="1" transform="translate(0 0)  rotate(0)">
    <path id="Ellipse 5" fill-rule="evenodd" style="fill:#EAEAEA" opacity="1"
      d="M24 12C24 5.37 18.63 0 12 0C5.37 0 0 5.37 0 12C0 18.63 5.37 24 12 24C18.63 24 24 18.63 24 12Z"></path>
    <path id="Line 9" style="fill:#BEBEBE; opacity:1;"
      d="M6.93843,15.4246l8.48527,-8.48526c0.03473,-0.03474 0.0711,-0.06769 0.1091,-0.09886c0.03793,-0.03116 0.07733,-0.06039 0.1182,-0.08768c0.04087,-0.02729 0.08297,-0.05252 0.1263,-0.07568c0.04333,-0.02316 0.08767,-0.04414 0.133,-0.06294c0.0454,-0.0188 0.0916,-0.03533 0.1386,-0.04959c0.04707,-0.01426 0.09467,-0.02618 0.1428,-0.03577c0.0482,-0.00958 0.09673,-0.01678 0.1456,-0.0216c0.04893,-0.00481 0.09797,-0.00722 0.1471,-0.00722c0.04913,0 0.09813,0.00241 0.147,0.00722c0.04887,0.00482 0.0974,0.01202 0.1456,0.0216c0.0482,0.00959 0.0958,0.02151 0.1428,0.03577c0.047,0.01426 0.0932,0.03079 0.1386,0.04959c0.0454,0.0188 0.08977,0.03978 0.1331,0.06294c0.04333,0.02316 0.0854,0.04839 0.1262,0.07568c0.04087,0.02729 0.0803,0.05652 0.1183,0.08768c0.03793,0.03117 0.07427,0.06412 0.109,0.09886c0.03473,0.03474 0.0677,0.0711 0.0989,0.10907c0.03113,0.03797 0.06037,0.07738 0.0877,0.11823c0.02727,0.04085 0.0525,0.08294 0.0757,0.12626c0.02313,0.04333 0.0441,0.08768 0.0629,0.13307c0.0188,0.04539 0.03533,0.09159 0.0496,0.1386c0.01427,0.04701 0.02617,0.09461 0.0357,0.14279c0.0096,0.04819 0.0168,0.09672 0.0216,0.14561c0.00487,0.04889 0.0073,0.0979 0.0073,0.14703c0,0.04913 -0.00243,0.09814 -0.0073,0.14703c-0.0048,0.04889 -0.012,0.09742 -0.0216,0.1456c-0.00953,0.04819 -0.02143,0.09579 -0.0357,0.1428c-0.01427,0.04701 -0.0308,0.0932 -0.0496,0.13859c-0.0188,0.04539 -0.03977,0.08975 -0.0629,0.13308c-0.0232,0.04332 -0.04843,0.0854 -0.0757,0.12625c-0.02733,0.04085 -0.05657,0.08027 -0.0877,0.11824c-0.0312,0.03797 -0.06417,0.07433 -0.0989,0.10907l-8.48525,8.48524c-0.03473,0.03473 -0.07109,0.0677 -0.10907,0.0989c-0.03797,0.03113 -0.07738,0.06037 -0.11823,0.0877c-0.04085,0.02727 -0.08293,0.0525 -0.12626,0.0757c-0.04333,0.02313 -0.08768,0.0441 -0.13307,0.0629c-0.04539,0.0188 -0.09159,0.03533 -0.1386,0.0496c-0.04701,0.01427 -0.09461,0.0262 -0.14279,0.0358c-0.04819,0.00953 -0.09672,0.01673 -0.14561,0.0216c-0.04889,0.0048 -0.0979,0.0072 -0.14703,0.0072c-0.04913,0 -0.09813,-0.0024 -0.14702,-0.0072c-0.04889,-0.00487 -0.09743,-0.01207 -0.14561,-0.0216c-0.04819,-0.0096 -0.09578,-0.02153 -0.14279,-0.0358c-0.04701,-0.01427 -0.09321,-0.0308 -0.1386,-0.0496c-0.04539,-0.0188 -0.08974,-0.03977 -0.13307,-0.0629c-0.04333,-0.0232 -0.08541,-0.04843 -0.12626,-0.0757c-0.04085,-0.02733 -0.08026,-0.05657 -0.11824,-0.0877c-0.03797,-0.0312 -0.07433,-0.06417 -0.10907,-0.0989c-0.03473,-0.03473 -0.06768,-0.07107 -0.09885,-0.109c-0.03117,-0.038 -0.0604,-0.07743 -0.08769,-0.1183c-0.02729,-0.0408 -0.05252,-0.08287 -0.07568,-0.1262c-0.02316,-0.04333 -0.04414,-0.0877 -0.06294,-0.1331c-0.0188,-0.0454 -0.03533,-0.0916 -0.04959,-0.1386c-0.01426,-0.047 -0.02618,-0.0946 -0.03576,-0.1428c-0.00959,-0.0482 -0.01679,-0.09673 -0.0216,-0.1456c-0.00482,-0.04887 -0.00723,-0.09787 -0.00723,-0.147c0,-0.04913 0.00241,-0.09813 0.00723,-0.147c0.00481,-0.04893 0.01201,-0.0975 0.0216,-0.1457c0.00958,-0.04813 0.0215,-0.0957 0.03576,-0.1427c0.01426,-0.04707 0.03079,-0.09327 0.04959,-0.1386c0.0188,-0.0454 0.03978,-0.08977 0.06294,-0.1331c0.02316,-0.04333 0.04839,-0.08543 0.07568,-0.1263c0.02729,-0.0408 0.05652,-0.0802 0.08769,-0.1182c0.03117,-0.038 0.06412,-0.07437 0.09885,-0.1091z">
    </path>
    <path id="Line 10" style="fill:#BEBEBE; opacity:1;"
      d="M9.05975,6.93843l8.48525,8.48527c0.03473,0.03473 0.0677,0.0711 0.0989,0.1091c0.03113,0.03793 0.06037,0.07733 0.0877,0.1182c0.02727,0.04087 0.0525,0.08297 0.0757,0.1263c0.02313,0.04333 0.0441,0.08767 0.0629,0.133c0.0188,0.0454 0.03533,0.0916 0.0496,0.1386c0.01427,0.04707 0.02617,0.09467 0.0357,0.1428c0.0096,0.0482 0.0168,0.09673 0.0216,0.1456c0.00487,0.04893 0.0073,0.09797 0.0073,0.1471c0,0.04913 -0.00243,0.09813 -0.0073,0.147c-0.0048,0.04887 -0.012,0.0974 -0.0216,0.1456c-0.00953,0.0482 -0.02143,0.0958 -0.0357,0.1428c-0.01427,0.047 -0.0308,0.0932 -0.0496,0.1386c-0.0188,0.0454 -0.03977,0.08977 -0.0629,0.1331c-0.0232,0.04333 -0.04843,0.0854 -0.0757,0.1262c-0.02733,0.04087 -0.05657,0.0803 -0.0877,0.1183c-0.0312,0.03793 -0.06417,0.07427 -0.0989,0.109c-0.03473,0.03473 -0.07107,0.0677 -0.109,0.0989c-0.038,0.03113 -0.07743,0.06037 -0.1183,0.0877c-0.0408,0.02727 -0.08287,0.0525 -0.1262,0.0757c-0.04333,0.02313 -0.0877,0.0441 -0.1331,0.0629c-0.0454,0.0188 -0.0916,0.03533 -0.1386,0.0496c-0.047,0.01427 -0.0946,0.02617 -0.1428,0.0357c-0.0482,0.0096 -0.09673,0.0168 -0.1456,0.0216c-0.04887,0.00487 -0.09787,0.0073 -0.147,0.0073c-0.04913,0 -0.09817,-0.00243 -0.1471,-0.0073c-0.04887,-0.0048 -0.0974,-0.012 -0.1456,-0.0216c-0.04813,-0.00953 -0.09573,-0.02143 -0.1428,-0.0357c-0.047,-0.01427 -0.0932,-0.0308 -0.1386,-0.0496c-0.04533,-0.0188 -0.08967,-0.03977 -0.133,-0.0629c-0.04333,-0.0232 -0.08543,-0.04843 -0.1263,-0.0757c-0.04087,-0.02733 -0.08027,-0.05657 -0.1182,-0.0877c-0.038,-0.0312 -0.07437,-0.06417 -0.1091,-0.0989l-8.48527,-8.48525c-0.03473,-0.03473 -0.06768,-0.07109 -0.09885,-0.10907c-0.03117,-0.03797 -0.0604,-0.07738 -0.08769,-0.11823c-0.02729,-0.04085 -0.05252,-0.08293 -0.07568,-0.12626c-0.02316,-0.04333 -0.04414,-0.08768 -0.06294,-0.13307c-0.0188,-0.04539 -0.03533,-0.09159 -0.04959,-0.1386c-0.01426,-0.04701 -0.02618,-0.09461 -0.03577,-0.14279c-0.00958,-0.04819 -0.01678,-0.09672 -0.02159,-0.14561c-0.00482,-0.04889 -0.00723,-0.0979 -0.00723,-0.14703c0,-0.04913 0.00241,-0.09813 0.00723,-0.14702c0.00481,-0.04889 0.01201,-0.09743 0.02159,-0.14561c0.00959,-0.04819 0.02151,-0.09578 0.03577,-0.14279c0.01426,-0.04701 0.03079,-0.09321 0.04959,-0.1386c0.0188,-0.04539 0.03978,-0.08974 0.06294,-0.13307c0.02316,-0.04333 0.04839,-0.08541 0.07568,-0.12626c0.02729,-0.04085 0.05652,-0.08026 0.08769,-0.11824c0.03117,-0.03797 0.06412,-0.07433 0.09885,-0.10907c0.03474,-0.03473 0.0711,-0.06768 0.10907,-0.09885c0.03798,-0.03117 0.07739,-0.0604 0.11824,-0.08769c0.04085,-0.02729 0.08293,-0.05252 0.12626,-0.07568c0.04333,-0.02316 0.08768,-0.04414 0.13307,-0.06294c0.04539,-0.0188 0.09159,-0.03533 0.1386,-0.04959c0.04701,-0.01426 0.0946,-0.02618 0.14279,-0.03576c0.04818,-0.00959 0.09672,-0.01679 0.14561,-0.0216c0.04889,-0.00482 0.09789,-0.00723 0.14702,-0.00723c0.04913,0 0.09814,0.00241 0.14703,0.00723c0.04889,0.00481 0.09742,0.01201 0.14561,0.0216c0.04818,0.00958 0.09578,0.0215 0.14279,0.03576c0.04701,0.01426 0.09321,0.03079 0.1386,0.04959c0.04539,0.0188 0.08974,0.03978 0.13307,0.06294c0.04333,0.02316 0.08541,0.04839 0.12626,0.07568c0.04085,0.02729 0.08026,0.05652 0.11823,0.08769c0.03798,0.03117 0.07434,0.06412 0.10907,0.09885z">
    </path>
  </g>
</svg>