<svg xmlns="http://www.w3.org/2000/svg" xmlns:xlink="http://www.w3.org/1999/xlink" width="100" height="36" viewBox="0 0 100 36" fill="none"><g opacity="1"  transform="translate(0 0)  rotate(0)"><path id="矩形 1" fill-rule="evenodd" style="fill:#621B21" opacity="1" d="M2 36L98 36C99.1 36 100 35.1 100 34L100 2C100 0.9 99.1 0 98 0L2 0C0.9 0 0 0.9 0 2L0 34C0 35.1 0.9 36 2 36Z"></path><g opacity="1"  transform="translate(7 8)  rotate(0)"><mask id="bg-mask-0" fill="white"><use transform="translate(0 0)  rotate(0)" xlink:href="#path_0"></use></mask><g mask="url(#bg-mask-0)" ><g opacity="1"  transform="translate(0 -0.12255859375)  rotate(0)"><path id="路径 7" fill-rule="evenodd" style="fill:#FFFFFF" opacity="1" d="M24.7034,5.92579v-1.59001h3.7v5.83002c0,0.26 0.16,0.69 0.48,0.98c0.27,0.24 0.66,0.41 1,0.46c0.34,0.05 6.19,0 8.29,0v1.64l-8.78,-0.03c-0.9,-0.07 -1.53,-0.36 -1.94,-0.91c-0.61,0.62 -1.44,0.94 -2.65,1.03c0,-0.67 0,-0.77 0,-1.27c0.3,-0.12 0.99,-0.44 0.99,-1.42c0,-0.99002 0.02,-3.68001 0.03,-4.72001z"></path><path id="路径 6" fill-rule="evenodd" style="fill:#FFFFFF" opacity="1" d="M28.7882,5.78503v-1.69h9.12v1.69h-1.92v3.46c0.01,0.05 0.05,0.17 0.14,0.17c0.1,0 0.26,0 0.32,0c0.04,-0.01 0.14,-0.02 0.14,-0.17c0,-0.14 0,-0.56 0,-0.72h1.54v1.23c-0.08,0.38997 -0.25,1.29997 -1.27,1.29997c-1.02,0 -1.61,0 -1.75,0c-0.44,-0.08 -1.48,-0.27 -1.48,-1.73997c0,-1.46 0,-3.02 0,-3.53h-0.8c0,4.44997 -3.7,5.43997 -3.92,5.43997c0,-0.97 0,-1.25997 0,-1.51997c0.5,-0.42 1.63,-1.47 1.63,-3.92c-1.22,0 -1,0 -1.75,0z"></path><path id="矩形 1" fill-rule="evenodd" style="fill:#FFFFFF" opacity="1" d="M29.3961,2.38854v-1.64h7.93v1.64001z"></path><path id="路径 1" fill-rule="evenodd" style="fill:#FFFFFF" opacity="1" d="M0.02432,5.06147l4.77,-4.65l3.18,3.23l3.10998,-3.11l2.8,0.02l-9.57998,9.47003l1.87,1.85l5.73998,-5.68003l7.59,7.46003l-0.03,3.76l-8.02,-7.97003l-5.73998,5.70003l-4.64,-4.62l5.08,-5.03003l-1.87,-1.85l-4.24,4.19z"></path><path id="路径 2" fill-rule="evenodd" style="fill:#FFFFFF" opacity="1" d="M17.6786,0.53183h1.8v0.91l-3.02,2.99l3.02,2.96v3.60997l-6.13,-6.01997v-0.24z"></path><path id="路径 3" fill-rule="evenodd" style="fill:#FFFFFF" opacity="1" d="M5.13,20.7055l-5.13,-5.08l0.02,-3.73l5.67,5.59l4.89,-4.92l5.32,5.28l-2.89,2.84h-2.6l2.38,-2.36l-2.63,-2.6z"></path><path id="路径 4" fill-rule="evenodd" style="fill:#FFFFFF" opacity="1" d="M16.8742,20.6829l2.6,-2.6v2.6z"></path><path id="路径 5" fill-rule="evenodd" style="fill:#FFFFFF" opacity="1" d="M26.117,3.3737c-0.12,-0.94 -0.42,-2.14 -0.83,-2.89h2.29c0.29,0.51 0.9,2.17 0.94,2.89z"></path><path id="减去顶层" fill-rule="evenodd" style="fill:#FFFFFF" opacity="1" d="M51.4033,7.6363h-9.85v-6.96h11.7v5.01c0,0.58 -0.3,1.95 -1.85,1.95zM43.9333,2.2363v1.11h2.19v-1.11zM48.6533,2.2363v1.16h2.24v-1.16zM43.9333,4.8863v1.11h2.19v-1.11zM50.8933,4.8863h-2.24v1.16h1.65c0.33,0 0.59,-0.26 0.59,-0.58z"></path><path id="路径 9" fill-rule="evenodd" style="fill:#FFFFFF" opacity="1" d="M40.4835,12.5497c0.39,-0.89 1.05,-3.44999 1.05,-4.40999h2.09c-0.15,1.56 -0.56,3.48999 -0.88,4.40999c-1.51,0 -2.26,0 -2.26,0z"></path><path id="路径 10" fill-rule="evenodd" style="fill:#FFFFFF" opacity="1" d="M43.9604,11.6797c0,-1.28 0,-3.00999 0,-3.53999h2.38v2.85999c0.03,0.21 0.1,0.68 0.63,0.68c0.54,0 1.6,0 2,0c0.24,-0.02 0.53,-0.17 0.53,-0.43c0,-0.27 0,-0.44 0,-0.44h1.92v1.01c-0.05,0.38 -0.26,1.4 -1.55,1.4c-1.29,0 -3.94,0 -4.38,0c-0.44,0 -0.75,-0.17 -1.09,-0.46c-0.13,-0.11 -0.23,-0.31 -0.3,-0.52c-0.06,-0.16 -0.14,-0.34 -0.14,-0.56z"></path><path id="路径 11" fill-rule="evenodd" style="fill:#FFFFFF" opacity="1" d="M47.9687,10.5038c0,-0.32 -0.26,-1.76001 -0.58,-2.34001h2.04c0.27,0.46 0.59,1.18 0.8,2.34001c-0.53,0 -1.5,0 -2.26,0z"></path><path id="路径 12" fill-rule="evenodd" style="fill:#FFFFFF" opacity="1" d="M51.9586,12.5197c-0.14,-1.01 -0.61,-3.36999 -1.02,-4.37999h2.07c0.36,0.84 1.21,3.51999 1.21,4.37999c-0.82,0.03 -1.51,0 -2.26,0z"></path><path id="路径 13" fill-rule="evenodd" style="fill:#FFFFFF" opacity="1" d="M56.6282,1.78256c0.39,-0.1 1.22,-0.82 1.22,-1.66h1.97c-0.02,0.15 -0.18,0.65 -0.18,0.65h3.9v1.25h-2.14c0,0.15 0.01,0.37 0,0.57c-0.03,0.29 -0.08,0.56 -0.08,0.56h2.53v1.21l-2.26,0.02c0.28,0.42 0.59,0.69 0.9,0.89c0.64,0.42 1.24,0.51 1.24,0.51v1.2c-0.33,-0.04 -1.45,-0.23 -2.14,-0.55c-0.86,-0.4 -1.29,-0.94 -1.29,-0.94c-0.16,0.15 -0.76,0.68 -1.58,1.01c-0.93,0.38 -2.09,0.55 -2.09,0.55v-1.15c0.49,-0.14 1.62,-0.46 2.2,-1.5l-2.2,-0.02v-1.27h2.53c0.14,-0.27 0.1,-0.56 0.1,-1.09h-0.51c-0.13,0.1 -0.51,0.38 -0.97,0.54c-0.53,0.2 -1.15,0.28 -1.15,0.28z"></path><path id="减去顶层" fill-rule="evenodd" style="fill:#FFFFFF" opacity="1" d="M68.157,6.47853h-4.04v-5.73h5.5v4.28999c0,0.79 -0.66,1.44 -1.46,1.44zM67.517,2.18854h-1.26v2.88999h0.83c0.24,0 0.43,-0.19 0.43,-0.43z"></path><path id="减去顶层" fill-rule="evenodd" style="fill:#FFFFFF" opacity="1" d="M67.0853,13.2163h-9.29v-6.16h11.23v4.24c0,1.06 -0.87,1.92 -1.94,1.92zM66.6453,9.4663v-0.87h-6.56v0.87zM66.1553,11.8263c0.27,0 0.49,-0.22 0.49,-0.48v-0.49h-6.56v0.97z"></path><path id="路径 14" fill-rule="evenodd" style="fill:#FFFFFF" opacity="1" d="M72.6028,2.96295c0.68,-0.58 1.7,-1.68 2.21,-2.72c1.05,0 1,0 2.73,0c-0.39,0.82 -1.8,2.29 -2.48,2.72l2.16,-0.05c0,0 -0.17,-0.67 -0.58,-1.23h1.97c0,0 0.94,1.5 1.33,3.16h-2.14c-0.05,-0.22 -0.05,-0.24 -0.12,-0.46c-0.23,0.05 -1.39,0.15 -2.58,0.2c-0.96,0.04 -1.91,0.04 -2.5,0.04c0,0 0,-1.01 0,-1.66z"></path><path id="减去顶层" fill-rule="evenodd" style="fill:#FFFFFF" opacity="1" d="M72.9632,5.15436h6.35v6.60004c0,1.06 -0.85,1.59 -1.48,1.59h-1.7v-1.45h0.63c0.11,-0.03 0.36,-0.1 0.36,-0.41v-0.46h-2.02v2.36h-2.16zM77.1532,7.53436v-0.91h-2.05v0.91zM77.1532,9.75436v-0.92h-2.05v0.92z"></path><path id="路径 16" fill-rule="evenodd" style="fill:#FFFFFF" opacity="1" d="M79.9457,4.81516c0,-0.98 0,-3.63 0,-4.5h2.26v1.56c0.46,-0.11999 1.34,-0.74 1.53,-1.29999h2.22c-0.28,0.71001 -1.17,2.57999 -3.75,2.77001v0.99c0.02,0.11999 0.17,0.40999 0.51,0.40999c0.34,0 0.89,0 1.05,0c0.09,-0.02999 0.34,-0.1 0.34,-0.40999c0,-0.31 0,-0.44001 0,-0.46001h1.77v1.09001c-0.06,0.40999 -0.22,1.37 -1.46,1.37c-1.24,0 -2.55,0.01999 -2.99,0.01999c-0.8,0 -1.48,-0.55 -1.48,-1.53999z"></path><path id="路径 16" fill-rule="evenodd" style="fill:#FFFFFF" opacity="1" d="M79.97,11.7174c0,-1.08 0,-3.99 0,-4.95h2.27v1.72c0.46,-0.13 1.34,-0.82 1.54,-1.43001h2.22c-0.28,0.78 -1.11,2.92001 -3.7,3.13001v1.2c0,0.15 0.1,0.4 0.45,0.4c0.35,0 0.86,0 1.01,0c0.1,-0.04 0.25,-0.11 0.25,-0.3c0,-0.19 0,-0.56 0,-0.58h1.92v0.97c-0.07,0.45 -0.22,1.51 -1.47,1.51c-1.24,0 -2.57,0.02 -3,0.02c-0.81,0 -1.49,-0.6 -1.49,-1.69z"></path><path id="路径 17" fill-rule="evenodd" style="fill:#FFFFFF" opacity="1" d="M29.3246,16.5385c0.07,0.03 0.17,0.1 0.27,0l-0.56,0.94l-0.03,-0.12c-0.09,-0.12 -0.7,-0.62 -1.89,-0.62c-1.2,0 -1.37,0.36 -1.37,0.62c0,0.6 1.39,0.51 2.51,0.72c1.12,0.22 1.7,0.92 1.09,2.17c-0.3,0.63 -1.36,0.91 -2.35,0.87c-1.06,-0.04 -2,-0.56 -2.32,-0.72c-0.07,-0.05 -0.19,0.04 -0.19,0.04l0.56,-0.96c0,0 -0.04,0.12 0,0.15c0.7,0.55 1.92,0.72 2.72,0.55c0.8,-0.17 1.06,-0.78 0.32,-1.11c-0.48,-0.21 -1.73,-0.2 -2.19,-0.31c-1.77,-0.43 -1.51,-2.46 0.44,-2.75c1.74,-0.25 2.62,0.34 2.99,0.53z"></path><path id="路径 18" fill-rule="evenodd" style="fill:#FFFFFF" opacity="1" d="M36.5959,16.0824l-0.08,-0.07h1.17l-0.07,0.07v4.84l0.12,0.07h-1.24l0.1,-0.07z"></path><path id="路径 19" fill-rule="evenodd" style="fill:#FFFFFF" opacity="1" d="M44.8385,16.0824l-0.08,-0.07h1.32l-0.12,0.1l1.58,2.93l1.53,-2.93l-0.12,-0.1h1.33l-0.09,0.1v4.81l0.12,0.07h-1.17l0.1,-0.07v-3.06l-1.75,3.18l-1.75,-3.1l-0.03,2.98l0.12,0.07h-1.09l0.1,-0.04z"></path><path id="路径 20" fill-rule="evenodd" style="fill:#FFFFFF" opacity="1" d="M57.1145,16.9761v-1.06l0.1,0.1h4.67l0.09,-0.08v1.04l-0.09,-0.12h-1.8v4.07l0.09,0.07h-1.24l0.1,-0.07v-4.07h-1.82z"></path><path id="路径 21" fill-rule="evenodd" style="fill:#FFFFFF" opacity="1" d="M68.954,16.0802l-0.1,-0.07h4.53l0.05,-0.07v0.89l-0.05,-0.1h-3.48v1.33h2.33l0.08,-0.15v1.04l-0.08,-0.12h-2.33v1.35h3.53l0.07,-0.1v1.04l-0.07,-0.12h-4.6l0.12,-0.08z"></path><path id="路径 22" fill-rule="evenodd" style="fill:#FFFFFF" opacity="1" d="M80.6249,16.1124l-0.1,-0.1h1.17l-0.1,0.1v1.97l2.51,-2l-0.1,-0.07h1.53l-2.31,1.93l2.58,3.08h-1.56l0.13,-0.1l-1.92,-2.31l-0.83,0.65v1.66l0.1,0.07h-1.22l0.1,-0.07z"></path></g></g></g></g><defs><rect id="path_0" x="0" y="0" width="86" height="21" /></defs></svg>